{"title":"In Time 2011 TS XviD READNFO - MiSTERE","uid":6782350,"size":2960764081,"categoryP":"video","categoryS":"movies","magnet":"?xt=urn:btih:1b5aaf35fc416b5527fbfb1686ca4165f15f95d0&amp;dn=In+Time+2011+TS+XviD+READNFO+-+MiSTERE&amp;tr=udp%3A%2F%2Ftracker.openbittorrent.com%3A80&amp;tr=udp%3A%2F%2Fopen.demonii.com%3A1337&amp;tr=udp%3A%2F%2Ftracker.coppersurfer.tk%3A6969&amp;tr=udp%3A%2F%2Fexodus.desync.com%3A6969","seeders":0,"leechers":0,"uploader":"TvTeam","files":104,"time":1319955716,"description":". \n &lt;a href=&quot;\nhttp://www.torrenting.com&quot; rel=&quot;nofollow&quot; target=&quot;_NEW&quot;&gt;\nhttp://www.torrenting.com&lt;/a&gt;          :     Once &amp; For all ;)\n\n\n               www . Torrenting . Com \n\n(((((((((((((= Enjoy No RAR releases =))))))))))))))))))))\n\n\n...................................NFO:....................................\n\n.In Time 2011 TS XviD READNFO - MiSTERE\n &lt;a href=&quot;\nhttp://www.imdb.com/title/tt1637688/&quot; rel=&quot;nofollow&quot; target=&quot;_NEW&quot;&gt;\nhttp://www.imdb.com/title/tt1637688/&lt;/a&gt;\n\n\nVideo\nID                               : 0\nFormat                           : MPEG-4 Visual\nFormat profile                   : Advanced Simple@L5\nFormat settings, BVOP            : 2\nFormat settings, QPel            : No\nFormat settings, GMC             : No warppoints\nFormat settings, Matrix          : Default (H.263)\nMuxing mode                      : Packed bitstream\nCodec ID                         : XVID\nCodec ID/Hint                    : XviD\nDuration                         : 1h 41mn\nBit rate                         : 1 791 Kbps\nWidth                            : 720 pixels\nHeight                           : 304 pixels\nDisplay aspect ratio             : 2.35:1\nFrame rate                       : 25.000 fps\nColor space                      : YUV\nChroma subsampling               : 4:2:0\nBit depth                        : 8 bits\nScan type                        : Progressive\nCompression mode                 : Lossy\nBits/(Pixel*Frame)               : 0.327\nStream size                      : 1.27 GiB (93%)\nWriting library                  : XviD 64\n\nAudio\nID                               : 1\nFormat                           : MPEG Audio\nFormat version                   : Version 1\nFormat profile                   : Layer 3\nMode                             : Joint stereo\nMode extension                   : MS Stereo\nCodec ID                         : 55\nCodec ID/Hint                    : MP3\nDuration                         : 1h 41mn\nBit rate mode                    : Constant\nBit rate                         : 128 Kbps\nChannel(s)                       : 2 channels\nSampling rate                    : 44.1 KHz\nCompression mode                 : Lossy\nStream size                      : 93.2 MiB (7%)\nAlignment                        : Split accross interleaves\nInterleave, duration             : 40 ms (1.00 video frame)\n\n\nThanks to RELiZLABS for the source files\nSharpened Resized and tweaked RGB\nVideo missing a few seconds here and there\nbut nothing important\nNot the best video or LiNE \nso take it or leave it\n\n[IMG]http://i.imgur.com/1hHBS.png[/IMG]\n[IMG]http://i.imgur.com/uXjmd.png[/IMG]\n[IMG]http://i.imgur.com/vC60U.png[/IMG]\n[IMG]http://i.imgur.com/Oc5LC.png[/IMG]\n[IMG]http://i.imgur.com/QlMR5.png[/IMG]","torrent":{"xt":"urn:btih:1b5aaf35fc416b5527fbfb1686ca4165f15f95d0","amp;dn":"In+Time+2011+TS+XviD+READNFO+-+MiSTERE","amp;tr":["udp%3A%2F%2Ftracker.openbittorrent.com%3A80","udp%3A%2F%2Fopen.demonii.com%3A1337","udp%3A%2F%2Ftracker.coppersurfer.tk%3A6969","udp%3A%2F%2Fexodus.desync.com%3A6969"],"infoHash":"1b5aaf35fc416b5527fbfb1686ca4165f15f95d0","infoHashBuffer":{"type":"Buffer","data":[27,90,175,53,252,65,107,85,39,251,251,22,134,202,65,101,241,95,149,208]},"announce":[],"urlList":[]}}